<svg width="22" height="20" viewBox="0 0 22 20" fill="none" xmlns="http://www.w3.org/2000/svg">
<path d="M9.12589 1.50097C9.86756 0.0441341 11.9489 0.0441349 12.6905 1.50097L14.4031 4.8649C14.7025 5.45294 15.2726 5.85548 15.9269 5.94076L19.6468 6.42558C21.3351 6.64562 21.9939 8.74008 20.7356 9.88697L18.1625 12.2321C17.6495 12.6997 17.4156 13.3999 17.5446 14.082L18.1941 17.5151C18.5029 19.1475 16.802 20.4229 15.3214 19.6691L11.8157 17.8841C11.2455 17.5938 10.5709 17.5938 10.0007 17.8841L6.49498 19.6691C5.01445 20.4229 3.31355 19.1475 3.62236 17.5151L4.2718 14.082C4.40083 13.3999 4.16695 12.6997 3.65389 12.2321L1.08086 9.88697C-0.177476 8.74008 0.481322 6.64562 2.16962 6.42558L5.8895 5.94076C6.54382 5.85548 7.11397 5.45294 7.41334 4.8649L9.12589 1.50097Z" fill="#FFC700"/>
</svg>
